<svg width="53" height="53" viewBox="0 0 53 53" fill="none" xmlns="http://www.w3.org/2000/svg">
<path d="M42.5543 10.335C42.0502 9.97175 41.4675 9.73246 40.8536 9.63654C40.2397 9.54062 39.6119 9.59076 39.021 9.78292C37.4622 10.2212 35.8478 10.4295 34.2289 10.4012C31.8363 10.2714 29.4905 9.68679 27.3168 8.67875C24.6315 7.43685 21.7269 6.73885 18.7705 6.625C12.3885 6.625 9.93721 8.83333 9.49555 9.1425C9.28423 9.34962 9.11669 9.59711 9.00288 9.87024C8.88907 10.1434 8.83132 10.4366 8.83305 10.7325V44.1667C8.83305 44.7523 9.06571 45.3141 9.47985 45.7282C9.89399 46.1423 10.4557 46.375 11.0414 46.375C11.6271 46.375 12.1888 46.1423 12.6029 45.7282C13.017 45.3141 13.2497 44.7523 13.2497 44.1667V34.6708C15.0094 33.9971 16.8879 33.689 18.7705 33.7654C21.1631 33.8953 23.5089 34.4799 25.6826 35.4879C28.3679 36.7298 31.2725 37.4278 34.2289 37.5417C36.891 37.6422 39.5393 37.1126 41.958 35.9958C42.6099 35.6896 43.1626 35.2063 43.5531 34.6011C43.9436 33.9959 44.1561 33.2931 44.1664 32.5729V13.4929C44.1656 12.8767 44.0192 12.2695 43.739 11.7207C43.4588 11.1718 43.0529 10.697 42.5543 10.335Z" fill="white"/>
</svg>
