<svg xmlns="http://www.w3.org/2000/svg" width="16" height="16" viewBox="0 0 16 16" fill="none">
  <path d="M4.75005 6.50001C4.2067 6.50001 3.83833 6.4696 3.58189 6.4126C3.33681 6.35814 3.25929 6.29355 3.23288 6.26713C3.20646 6.24072 3.14188 6.16321 3.08741 5.91813C3.03042 5.6617 3 5.29334 3 4.75001C3 4.20667 3.03042 3.83831 3.08741 3.58188C3.14188 3.33681 3.20646 3.25929 3.23288 3.23288C3.25929 3.20646 3.33681 3.14188 3.58189 3.08741C3.83833 3.03042 4.2067 3 4.75005 3C5.29339 3 5.66176 3.03042 5.9182 3.08741C6.16328 3.14188 6.2408 3.20646 6.26722 3.23288C6.29363 3.25929 6.35822 3.33681 6.41269 3.58188C6.46968 3.83831 6.50009 4.20667 6.50009 4.75001C6.50009 5.29334 6.46968 5.6617 6.41269 5.91813C6.35822 6.16321 6.29363 6.24072 6.26722 6.26713C6.2408 6.29355 6.16328 6.35814 5.9182 6.4126C5.66176 6.4696 5.29339 6.50001 4.75005 6.50001ZM4.75005 13C4.2067 13 3.83833 12.9696 3.58189 12.9126C3.33681 12.8581 3.25929 12.7935 3.23288 12.7671C3.20646 12.7407 3.14188 12.6632 3.08741 12.4181C3.03042 12.1617 3 11.7933 3 11.25C3 10.7067 3.03042 10.3383 3.08741 10.0819C3.14188 9.83679 3.20646 9.75928 3.23288 9.73287C3.25929 9.70645 3.33681 9.64186 3.58189 9.58739C3.83833 9.5304 4.2067 9.49999 4.75005 9.49999C5.29339 9.49999 5.66176 9.5304 5.9182 9.58739C6.16328 9.64186 6.2408 9.70645 6.26722 9.73287C6.29363 9.75928 6.35822 9.83679 6.41269 10.0819C6.46968 10.3383 6.50009 10.7067 6.50009 11.25C6.50009 11.7933 6.46968 12.1617 6.41269 12.4181C6.35822 12.6632 6.29363 12.7407 6.26722 12.7671C6.2408 12.7935 6.16328 12.8581 5.9182 12.9126C5.66176 12.9696 5.29339 13 4.75005 13ZM11.25 6.50001C10.7066 6.50001 10.3382 6.4696 10.0818 6.4126C9.83672 6.35814 9.7592 6.29355 9.73278 6.26713C9.70637 6.24072 9.64178 6.16321 9.58732 5.91813C9.53032 5.6617 9.49991 5.29334 9.49991 4.75001C9.49991 4.20667 9.53032 3.83831 9.58732 3.58188C9.64178 3.33681 9.70637 3.25929 9.73278 3.23288C9.7592 3.20646 9.83672 3.14188 10.0818 3.08741C10.3382 3.03042 10.7066 3 11.25 3C11.7933 3 12.1617 3.03042 12.4181 3.08741C12.6632 3.14188 12.7407 3.20646 12.7671 3.23288C12.7935 3.25929 12.8581 3.33681 12.9126 3.58188C12.9696 3.83831 13 4.20667 13 4.75001C13 5.29334 12.9696 5.6617 12.9126 5.91813C12.8581 6.16321 12.7935 6.24072 12.7671 6.26713C12.7407 6.29355 12.6632 6.35814 12.4181 6.4126C12.1617 6.4696 11.7933 6.50001 11.25 6.50001ZM11.25 13C10.7066 13 10.3382 12.9696 10.0818 12.9126C9.83672 12.8581 9.7592 12.7935 9.73278 12.7671C9.70637 12.7407 9.64178 12.6632 9.58732 12.4181C9.53032 12.1617 9.49991 11.7933 9.49991 11.25C9.49991 10.7067 9.53032 10.3383 9.58732 10.0819C9.64178 9.83679 9.70637 9.75928 9.73278 9.73286C9.7592 9.70645 9.83672 9.64186 10.0818 9.58739C10.3382 9.5304 10.7066 9.49999 11.25 9.49999C11.7933 9.49999 12.1617 9.5304 12.4181 9.58739C12.6632 9.64186 12.7407 9.70645 12.7671 9.73287C12.7935 9.75928 12.8581 9.83679 12.9126 10.0819C12.9696 10.3383 13 10.7067 13 11.25C13 11.7933 12.9696 12.1617 12.9126 12.4181C12.8581 12.6632 12.7935 12.7407 12.7671 12.7671C12.7407 12.7935 12.6632 12.8581 12.4181 12.9126C12.1617 12.9696 11.7933 13 11.25 13Z" fill="#007CFF" stroke="#007CFF" stroke-width="2" stroke-linecap="round" stroke-linejoin="round"/>
</svg>
