<svg xmlns="http://www.w3.org/2000/svg" width="16" height="16" viewBox="0 0 16 16" fill="none">
  <path d="M13.902 3.74796C13.8648 3.70208 13.8179 3.66501 13.7647 3.63942C13.7115 3.61383 13.6533 3.60036 13.5942 3.59997H12.3352L12.3952 2.41999C12.3976 2.36563 12.389 2.31134 12.3697 2.26045C12.3505 2.20955 12.3211 2.16312 12.2833 2.124C12.2461 2.085 12.2015 2.05391 12.152 2.0326C12.1026 2.0113 12.0493 2.00021 11.9955 2H4.00188C3.94804 2.00021 3.8948 2.0113 3.84535 2.0326C3.7959 2.05391 3.75126 2.085 3.71411 2.124C3.67632 2.16312 3.6469 2.20955 3.62766 2.26045C3.60842 2.31134 3.59975 2.36563 3.6022 2.41999L3.66215 3.61997H2.40316C2.34412 3.62036 2.28591 3.63383 2.23269 3.65942C2.17948 3.68501 2.13259 3.72208 2.0954 3.76796C2.0591 3.81062 2.03216 3.86044 2.01632 3.91419C2.00048 3.96793 1.99611 4.02441 2.00348 4.07996L2.68293 7.43589C2.73741 7.70767 2.88422 7.95219 3.09842 8.12792C3.31263 8.30365 3.58102 8.39974 3.858 8.39987H4.21771C4.46713 8.93175 4.8261 9.40485 5.27107 9.78813C5.71605 10.1714 6.23696 10.4562 6.79965 10.6238V11.5998H9.19773V10.6238C9.76042 10.4562 10.2813 10.1714 10.7263 9.78813C11.1713 9.40485 11.5302 8.93175 11.7797 8.39987H12.1394C12.4164 8.39974 12.6848 8.30365 12.899 8.12792C13.1132 7.95219 13.26 7.70767 13.3144 7.43589L13.9939 4.07996C14.0043 4.02126 14.0014 3.96099 13.9855 3.90355C13.9696 3.84611 13.941 3.79295 13.902 3.74796ZM3.858 7.59989C3.76449 7.60177 3.67329 7.57079 3.60026 7.51232C3.52723 7.45385 3.477 7.3716 3.45831 7.27989L2.89077 4.39995H3.69013L3.81003 6.8239C3.82854 7.0857 3.87 7.34536 3.93394 7.59989H3.858ZM12.5311 7.27989C12.5124 7.3716 12.4622 7.45385 12.3891 7.51232C12.3161 7.57079 12.2249 7.60177 12.1314 7.59989H12.0555C12.1153 7.345 12.1528 7.08534 12.1674 6.8239L12.2953 4.39995H13.0946L12.5311 7.27989ZM10.109 12.3998H5.88838L5.6006 13.5038C5.58564 13.5628 5.58434 13.6245 5.5968 13.6841C5.60927 13.7437 5.63518 13.7997 5.67255 13.8478C5.71142 13.8971 5.76134 13.9365 5.81828 13.9629C5.87522 13.9893 5.93757 14.0019 6.00029 13.9998H9.9971C10.0578 14.0001 10.1178 13.9866 10.1725 13.9602C10.2272 13.9339 10.2752 13.8954 10.3128 13.8478C10.3502 13.7997 10.3761 13.7437 10.3886 13.6841C10.4011 13.6245 10.3998 13.5628 10.3848 13.5038L10.109 12.3998Z" fill="#007CFF"/>
</svg>
