<svg xmlns="http://www.w3.org/2000/svg" width="16" height="16" viewBox="0 0 16 16" fill="none">
  <path d="M8.13871 3.85526C8.10149 3.81711 8.05196 3.79582 8.00046 3.79582C7.94895 3.79582 7.89943 3.81711 7.86221 3.85526L3.25972 8.56628C3.24017 8.58631 3.22462 8.61038 3.21401 8.63704C3.20339 8.6637 3.19794 8.69239 3.19797 8.72137L3.19722 13.1428C3.19722 13.3702 3.2815 13.5882 3.43153 13.7489C3.58156 13.9097 3.78504 14 3.99721 14H6.39971C6.5058 14 6.60754 13.9548 6.68255 13.8745C6.75757 13.7941 6.79971 13.6851 6.79971 13.5714V9.92839C6.79971 9.87156 6.82078 9.81705 6.85829 9.77686C6.89579 9.73667 6.94666 9.7141 6.99971 9.7141H8.9997C9.05275 9.7141 9.10362 9.73667 9.14112 9.77686C9.17863 9.81705 9.1997 9.87156 9.1997 9.92839V13.5714C9.1997 13.6851 9.24184 13.7941 9.31686 13.8745C9.39187 13.9548 9.49362 14 9.5997 14H12.0012C12.2134 14 12.4169 13.9097 12.5669 13.7489C12.7169 13.5882 12.8012 13.3702 12.8012 13.1428V8.72137C12.8012 8.69239 12.7958 8.6637 12.7852 8.63704C12.7745 8.61038 12.759 8.58631 12.7394 8.56628L8.13871 3.85526Z" fill="#007CFF"/>
  <path d="M13.8727 7.68284L12.0027 5.76597V2.85718C12.0027 2.74351 11.9606 2.6345 11.8856 2.55412C11.8106 2.47375 11.7088 2.42859 11.6027 2.42859H10.4027C10.2967 2.42859 10.1949 2.47375 10.1199 2.55412C10.0449 2.6345 10.0027 2.74351 10.0027 2.85718V3.71436L8.55474 2.2309C8.41924 2.08411 8.21774 2 8 2C7.783 2 7.582 2.08411 7.4465 2.23117L2.12901 7.68231C1.97351 7.84303 1.95401 8.10742 2.09551 8.28153C2.13104 8.32548 2.17455 8.36122 2.22338 8.38658C2.27222 8.41194 2.32536 8.42639 2.37957 8.42905C2.43378 8.4317 2.48793 8.42251 2.53872 8.40203C2.58951 8.38155 2.63588 8.35022 2.67501 8.30992L7.86249 2.99862C7.89972 2.96047 7.94924 2.93917 8.00074 2.93917C8.05225 2.93917 8.10177 2.96047 8.13899 2.99862L13.327 8.30992C13.4034 8.38845 13.5058 8.4313 13.6116 8.4291C13.7175 8.42689 13.8182 8.37979 13.8917 8.29814C14.0452 8.12777 14.0325 7.84651 13.8727 7.68284Z" fill="#007CFF"/>
</svg>
