<svg xmlns="http://www.w3.org/2000/svg" width="16" height="16" viewBox="0 0 16 16" fill="none">
  <path d="M9.20463 2V6.91642C9.20909 6.95229 9.2021 6.98865 9.18465 7.02031C9.1672 7.05196 9.14019 7.07729 9.10748 7.09266C9.07477 7.10804 9.03804 7.11268 9.00253 7.10592C8.96702 7.09916 8.93456 7.08134 8.90979 7.05502L7.64982 5.70937C7.63445 5.69086 7.61519 5.67597 7.59342 5.66575C7.57164 5.65553 7.54788 5.65023 7.52382 5.65023C7.49977 5.65023 7.47601 5.65553 7.45423 5.66575C7.43245 5.67597 7.4132 5.69086 7.39782 5.70937L6.13785 7.05502C6.11308 7.08134 6.08062 7.09916 6.04511 7.10592C6.00961 7.11268 5.97287 7.10804 5.94016 7.09266C5.90745 7.07729 5.88044 7.05196 5.86299 7.02031C5.84554 6.98865 5.83855 6.95229 5.84302 6.91642V2H9.20463Z" fill="#007CFF"/>
  <path d="M11.732 2H9.96808V8.44351C9.9694 8.49399 9.95552 8.54371 9.92825 8.58621C9.90097 8.62871 9.86155 8.66203 9.81511 8.68186C9.76866 8.70169 9.71733 8.7071 9.66778 8.6974C9.61822 8.68771 9.57271 8.66334 9.53717 8.62747L7.70517 6.8635C7.65806 6.81733 7.59473 6.79147 7.52877 6.79147C7.46281 6.79147 7.39948 6.81733 7.35237 6.8635L5.52037 8.62747C5.48482 8.66334 5.43932 8.68771 5.38976 8.6974C5.3402 8.7071 5.28887 8.70169 5.24243 8.68186C5.19598 8.66203 5.15657 8.62871 5.12929 8.58621C5.10202 8.54371 5.08814 8.49399 5.08946 8.44351V2H4.26795C3.66646 2 3.08959 2.23894 2.66427 2.66427C2.23894 3.08959 2 3.66646 2 4.26795V11.732C2 12.3335 2.23894 12.9104 2.66427 13.3357C3.08959 13.7611 3.66646 14 4.26795 14H11.732C12.3335 14 12.9104 13.7611 13.3357 13.3357C13.7611 12.9104 14 12.3335 14 11.732V4.27047C14.0003 3.97243 13.9419 3.67724 13.8281 3.40179C13.7143 3.12634 13.5473 2.87603 13.3366 2.66516C13.126 2.45429 12.8759 2.28701 12.6005 2.17288C12.3252 2.05875 12.0301 2 11.732 2ZM10.1646 12.672H4.36875C4.2685 12.672 4.17236 12.6322 4.10147 12.5613C4.03058 12.4904 3.99076 12.3942 3.99076 12.294C3.99076 12.1937 4.03058 12.0976 4.10147 12.0267C4.17236 11.9558 4.2685 11.916 4.36875 11.916H10.1646C10.2649 11.916 10.361 11.9558 10.4319 12.0267C10.5028 12.0976 10.5426 12.1937 10.5426 12.294C10.5426 12.3942 10.5028 12.4904 10.4319 12.5613C10.361 12.6322 10.2649 12.672 10.1646 12.672ZM12.2713 10.908H4.36371C4.26346 10.908 4.16732 10.8682 4.09643 10.7973C4.02554 10.7264 3.98572 10.6303 3.98572 10.53C3.98572 10.4298 4.02554 10.3336 4.09643 10.2627C4.16732 10.1919 4.26346 10.152 4.36371 10.152H12.2713C12.3716 10.152 12.4677 10.1919 12.5386 10.2627C12.6095 10.3336 12.6493 10.4298 12.6493 10.53C12.6493 10.6303 12.6095 10.7264 12.5386 10.7973C12.4677 10.8682 12.3716 10.908 12.2713 10.908Z" fill="#007CFF"/>
</svg>
