<svg xmlns="http://www.w3.org/2000/svg" width="16" height="16" viewBox="0 0 16 16" fill="none">
  <path d="M8.00298 6.7936C9.3339 6.7936 10.4128 5.72052 10.4128 4.3968C10.4128 3.07308 9.3339 2 8.00298 2C6.67205 2 5.59313 3.07308 5.59313 4.3968C5.59313 5.72052 6.67205 6.7936 8.00298 6.7936Z" fill="#007CFF"/>
  <path d="M13.9718 12.3381C13.7218 11.2061 13.1486 10.17 12.321 9.35409C12.1201 9.15361 11.9025 8.97053 11.6703 8.80682C10.6132 8.01818 9.32475 7.59709 8.00335 7.60842C6.3876 7.60019 4.83412 8.2277 3.68168 9.35409C2.8541 10.17 2.28091 11.2061 2.03094 12.3381C1.98749 12.5383 1.98983 12.7456 2.0378 12.9447C2.08577 13.1439 2.17814 13.3297 2.30807 13.4886C2.44263 13.6508 2.61207 13.781 2.80392 13.8695C2.99577 13.958 3.20514 14.0025 3.4166 13.9999H12.5901C12.8022 14 13.0116 13.9527 13.2028 13.8614C13.394 13.7701 13.5621 13.6373 13.6946 13.4726C13.8222 13.3156 13.9132 13.1324 13.9612 12.9363C14.0091 12.7401 14.0127 12.5358 13.9718 12.3381Z" fill="#007CFF"/>
</svg>
