<svg xmlns="http://www.w3.org/2000/svg" width="16" height="16" viewBox="0 0 16 16" fill="none">
  <path d="M6.81622 10.4628L4.83351 10.9693L5.55637 13.3138C5.70094 13.7827 6.23793 14.1016 6.83687 13.9703C7.39451 13.839 7.70431 13.3138 7.55973 12.8074L6.81622 10.4628ZM12.9089 8.11831C13.7144 7.81821 14.1688 6.99293 13.9416 6.20516C13.7144 5.4174 12.847 4.92974 11.9795 5.06103L11.1947 2.51017C11.0708 2.13505 10.6577 1.92873 10.2653 2.02251C9.85224 2.13505 9.62505 2.51017 9.72832 2.86654L12.2274 11.0255C12.3306 11.3819 12.7437 11.607 13.1568 11.5132C13.5698 11.4194 13.797 11.0255 13.6731 10.6692L12.9089 8.11831ZM5.86617 6.22392C5.80421 6.28019 5.78356 6.33646 5.80421 6.41148L6.85752 9.8814C6.87818 9.95642 6.94014 9.99394 7.0021 10.0127L11.7936 11.063L9.35656 3.07286L5.86617 6.22392ZM6.48577 9.97518C5.39115 6.33646 5.39115 6.52402 5.4118 6.3177L3.55301 6.78661C3.38779 6.82412 3.24321 6.93666 3.1606 7.06795C3.09864 7.16174 3.07799 7.25552 3.07799 7.36805C2.29317 7.6494 1.81814 8.45592 2.06598 9.22493C2.27251 9.91891 2.95407 10.3691 3.71824 10.3691C3.8215 10.3691 3.90412 10.3691 4.00738 10.3503C4.11065 10.5379 4.33783 10.6504 4.56502 10.6504C4.62698 10.6504 4.68894 10.6504 4.73024 10.6317L6.58903 10.1627C6.52707 10.0877 6.48577 10.0315 6.48577 9.97518Z" fill="#007CFF"/>
</svg>
